<svg width="74" height="42" viewBox="0 0 74 42" fill="none" xmlns="http://www.w3.org/2000/svg">
<path d="M52 40H22C19.791 40 18 38.209 18 36V6C18 3.791 19.791 2 22 2H52C54.209 2 56 3.791 56 6V36C56 38.209 54.209 40 52 40Z" stroke="#979797" stroke-width="4" stroke-miterlimit="10" stroke-linecap="round" stroke-linejoin="round"/>
<path d="M37 34C44.1797 34 50 28.1797 50 21C50 13.8203 44.1797 8 37 8C29.8203 8 24 13.8203 24 21C24 28.1797 29.8203 34 37 34Z" stroke="#979797" stroke-width="4" stroke-miterlimit="10" stroke-linecap="round" stroke-linejoin="round"/>
<path d="M39.892 18.108L39.971 18.095C43.263 17.546 45.676 14.698 45.676 11.361" stroke="#979797" stroke-width="4" stroke-miterlimit="10" stroke-linecap="round" stroke-linejoin="round"/>
<path d="M37 16.911L37.046 16.846C38.986 14.13 38.678 10.41 36.318 8.04999" stroke="#979797" stroke-width="4" stroke-miterlimit="10" stroke-linecap="round" stroke-linejoin="round"/>
<path d="M34.108 18.108L34.095 18.029C33.546 14.737 30.698 12.324 27.361 12.324" stroke="#979797" stroke-width="4" stroke-miterlimit="10" stroke-linecap="round" stroke-linejoin="round"/>
<path d="M32.911 21L32.846 20.954C30.13 19.014 26.41 19.322 24.05 21.682" stroke="#979797" stroke-width="4" stroke-miterlimit="10" stroke-linecap="round" stroke-linejoin="round"/>
<path d="M34.108 23.892L34.029 23.905C30.737 24.454 28.324 27.302 28.324 30.639" stroke="#979797" stroke-width="4" stroke-miterlimit="10" stroke-linecap="round" stroke-linejoin="round"/>
<path d="M37 25.089L36.954 25.154C35.014 27.87 35.322 31.59 37.682 33.95" stroke="#979797" stroke-width="4" stroke-miterlimit="10" stroke-linecap="round" stroke-linejoin="round"/>
<path d="M39.892 23.892L39.905 23.971C40.454 27.263 43.302 29.676 46.639 29.676" stroke="#979797" stroke-width="4" stroke-miterlimit="10" stroke-linecap="round" stroke-linejoin="round"/>
<path d="M41.089 21L41.154 21.046C43.87 22.986 47.59 22.678 49.95 20.318" stroke="#979797" stroke-width="4" stroke-miterlimit="10" stroke-linecap="round" stroke-linejoin="round"/>
<path d="M39.8908 23.8913C41.4877 22.2945 41.4877 19.7055 39.8908 18.1087C38.294 16.5118 35.705 16.5118 34.1082 18.1087C32.5113 19.7055 32.5113 22.2945 34.1082 23.8913C35.705 25.4882 38.294 25.4882 39.8908 23.8913Z" stroke="#979797" stroke-width="4" stroke-miterlimit="10" stroke-linecap="round" stroke-linejoin="round"/>
<path d="M71 23H68" stroke="#979797" stroke-width="4" stroke-miterlimit="10" stroke-linecap="round" stroke-linejoin="round"/>
<path d="M62 17H55" stroke="#979797" stroke-width="4" stroke-miterlimit="10" stroke-linecap="round" stroke-linejoin="round"/>
<path d="M68 19C69.1046 19 70 18.1046 70 17C70 15.8954 69.1046 15 68 15C66.8954 15 66 15.8954 66 17C66 18.1046 66.8954 19 68 19Z" fill="#979797"/>
<path d="M62 25C63.1046 25 64 24.1046 64 23C64 21.8954 63.1046 21 62 21C60.8954 21 60 21.8954 60 23C60 24.1046 60.8954 25 62 25Z" fill="#979797"/>
<path d="M71 31C72.1046 31 73 30.1046 73 29C73 27.8954 72.1046 27 71 27C69.8954 27 69 27.8954 69 29C69 30.1046 69.8954 31 71 31Z" fill="#979797"/>
<path d="M72 13C73.1046 13 74 12.1046 74 11C74 9.89543 73.1046 9 72 9C70.8954 9 70 9.89543 70 11C70 12.1046 70.8954 13 72 13Z" fill="#979797"/>
<path d="M52 11H66" stroke="#979797" stroke-width="4" stroke-miterlimit="10" stroke-linecap="round" stroke-linejoin="round"/>
<path d="M65 29H54" stroke="#979797" stroke-width="4" stroke-miterlimit="10" stroke-linecap="round" stroke-linejoin="round"/>
<path d="M12 18H2" stroke="#979797" stroke-width="4" stroke-miterlimit="10" stroke-linecap="round" stroke-linejoin="round"/>
<path d="M12 30H7" stroke="#979797" stroke-width="4" stroke-miterlimit="10" stroke-linecap="round" stroke-linejoin="round"/>
<path d="M16 12H5" stroke="#979797" stroke-width="4" stroke-miterlimit="10" stroke-linecap="round" stroke-linejoin="round"/>
<path d="M16 24H12" stroke="#979797" stroke-width="4" stroke-miterlimit="10" stroke-linecap="round" stroke-linejoin="round"/>
<path d="M6 24H3" stroke="#979797" stroke-width="4" stroke-miterlimit="10" stroke-linecap="round" stroke-linejoin="round"/>
</svg>
