<svg width="31" height="31" viewBox="0 0 31 31" fill="none" xmlns="http://www.w3.org/2000/svg">
<path d="M30.0342 25.9582L19.576 15.5L30.0342 5.0418C31.1633 3.9127 31.1633 2.09492 30.0342 0.965822C28.9051 -0.16328 27.0873 -0.16328 25.9582 0.965822L15.5 11.424L5.04179 0.965822C3.91269 -0.16328 2.09492 -0.16328 0.965814 0.965822C-0.163287 2.09492 -0.163287 3.9127 0.965814 5.0418L11.424 15.5L0.965814 25.9582C-0.163287 27.0873 -0.163287 28.9051 0.965814 30.0342C2.09492 31.1633 3.91269 31.1633 5.04179 30.0342L15.5 19.576L25.9582 30.0342C27.0873 31.1633 28.9051 31.1633 30.0342 30.0342C31.1553 28.9051 31.1553 27.0793 30.0342 25.9582Z" fill="#D7D7D7"/>
</svg>
