<svg width="50" height="50" viewBox="0 0 50 50" fill="none" xmlns="http://www.w3.org/2000/svg">
<path d="M20.3125 20.3125C20.3125 16.8607 17.5143 14.0625 14.0625 14.0625C10.6107 14.0625 7.8125 16.8607 7.8125 20.3125C7.8125 21.483 8.13424 22.5783 8.69411 23.5148" stroke="#979797" stroke-width="2"/>
<path d="M36.065 14.8929C34.181 11.5966 30.6312 9.375 26.5625 9.375C22.7146 9.375 19.3309 11.362 17.3813 14.3658" stroke="#979797" stroke-width="2" stroke-linecap="round"/>
<path d="M20.5377 21.9279C19.2074 21.293 17.7181 20.9375 16.1458 20.9375C10.5079 20.9375 5.9375 25.5079 5.9375 31.1458C5.9375 36.7837 10.5079 41.3542 16.1458 41.3542C18.9312 41.3542 21.456 40.2386 23.2979 38.4299" stroke="#979797" stroke-width="2"/>
<path d="M21.0356 35.6148C23.3983 39.0795 27.377 41.3542 31.887 41.3542C39.1357 41.3542 45.012 35.4779 45.012 28.2292C45.012 20.9804 39.1357 15.1042 31.887 15.1042C25.6012 15.1042 20.3474 19.5229 19.0625 25.4236" stroke="#979797" stroke-width="2" stroke-linecap="round"/>
</svg>
