<svg width="50" height="50" viewBox="0 0 50 50" fill="none" xmlns="http://www.w3.org/2000/svg">
<path d="M19.7512 10.1654C18.3787 9.51027 16.8421 9.14352 15.2199 9.14352C9.40302 9.14352 4.6875 13.859 4.6875 19.6759C4.6875 25.4928 9.40302 30.2083 15.2199 30.2083C18.0937 30.2083 20.6987 29.0574 22.599 27.1913" stroke="#979797" stroke-width="2"/>
<path d="M20.265 24.2868C22.7027 27.8614 26.8077 30.2083 31.4608 30.2083C38.9396 30.2083 45.0024 24.1455 45.0024 16.6667C45.0024 9.18781 38.9396 3.125 31.4608 3.125C24.9754 3.125 19.5549 7.68403 18.2292 13.772" stroke="#979797" stroke-width="2" stroke-linecap="round"/>
<path fill-rule="evenodd" clip-rule="evenodd" d="M29.6875 39.0828L27.7534 41.7008C26.9157 42.8346 27.0335 44.4105 28.0302 45.4073C28.9455 46.3226 30.4295 46.3226 31.3448 45.4073C32.3415 44.4105 32.4593 42.8346 31.6216 41.7008L29.6875 39.0828Z" fill="#979797" stroke="#979797"/>
<path fill-rule="evenodd" clip-rule="evenodd" d="M17.1875 39.0828L15.2534 41.7008C14.4157 42.8346 14.5335 44.4105 15.5302 45.4073C16.4455 46.3226 17.9295 46.3226 18.8448 45.4073C19.8415 44.4105 19.9593 42.8346 19.1216 41.7008L17.1875 39.0828Z" fill="#979797" stroke="#979797"/>
<path fill-rule="evenodd" clip-rule="evenodd" d="M23.4375 32.8328L21.5034 35.4508C20.6657 36.5846 20.7834 38.1605 21.7802 39.1573C22.6955 40.0726 24.1795 40.0726 25.0948 39.1573C26.0915 38.1605 26.2093 36.5846 25.3716 35.4508L23.4375 32.8328Z" fill="#979797" stroke="#979797"/>
</svg>
