<svg width="42" height="62" viewBox="0 0 42 62" fill="none" xmlns="http://www.w3.org/2000/svg">
<path d="M42 38.9308C42 45.0491 39.7875 50.9169 35.8492 55.2432C31.911 59.5695 26.5695 62 21 62C15.4305 62 10.089 59.5695 6.15076 55.2432C2.21249 50.9169 0 45.0491 0 38.9308C0 18.7422 17.027 0 21 0C24.973 0 42 18.7422 42 38.9308Z" fill="#B9C1C6"/>
<path d="M18.5027 33.5812C18.5027 37.7212 16.1189 39.8785 13.5081 39.8785C10.8973 39.8785 8.60428 37.6214 8.60428 33.9054C8.60428 30.1894 10.5681 27.6705 13.6443 27.6705C16.7205 27.6705 18.5027 30.2019 18.5027 33.5812ZM11.6918 33.7932C11.6918 35.8632 12.3275 37.3596 13.5535 37.3596C14.7794 37.3596 15.3243 36.0253 15.3243 33.7932C15.3243 31.7855 14.8248 30.2268 13.5194 30.2268C12.214 30.2268 11.7373 31.823 11.7373 33.7932H11.6918ZM34.054 41.8113C34.054 45.9513 31.6702 48.1086 29.0594 48.1086C26.4486 48.1086 24.1783 45.8515 24.1556 42.1355C24.1329 38.4195 26.1194 35.9006 29.1956 35.9006C32.2718 35.9006 34.054 38.4818 34.054 41.8113ZM27.3227 42.0233C27.3227 44.0933 27.9356 45.5896 29.1502 45.5896C30.3648 45.5896 30.921 44.2554 30.921 42.0233C30.921 40.0156 30.4443 38.4569 29.1502 38.4569C27.8562 38.4569 27.3681 40.0406 27.3681 42.0233H27.3227Z" fill="#363636"/>
<path d="M26.9026 28.1194L16.4026 46.8616" stroke="#363636" stroke-width="2" stroke-linecap="round" stroke-linejoin="round"/>
</svg>
