<svg width="64" height="64" viewBox="0 0 64 64" fill="none" xmlns="http://www.w3.org/2000/svg">
<path fill-rule="evenodd" clip-rule="evenodd" d="M47.3887 3.93534L48.6075 4.63774C48.7697 4.73183 48.8243 4.93807 48.7322 5.09953L45.4947 10.7078C45.3996 10.8679 45.1924 10.9254 45.0323 10.8313L43.8128 10.1299C43.6513 10.0356 43.5959 9.82841 43.6916 9.66734L46.9283 4.05889C47.0212 3.89861 47.2274 3.84125 47.3887 3.93534Z" fill="#B9C1C6"/>
<path fill-rule="evenodd" clip-rule="evenodd" d="M48.6086 59.3627L47.3911 60.0641C47.23 60.1582 47.0224 60.1014 46.9285 59.9423L43.6918 54.3354C43.5993 54.1722 43.6539 53.9646 43.8161 53.8728L45.0349 53.1669C45.1959 53.0748 45.4023 53.1294 45.4949 53.293L48.7322 58.9001C48.8265 59.0612 48.7709 59.2702 48.6086 59.3627Z" fill="#B9C1C6"/>
<path fill-rule="evenodd" clip-rule="evenodd" d="M31.2973 0H32.6988C32.8875 0 33.0389 0.151639 33.0389 0.340204V6.81115C33.0389 7.0005 32.8875 7.15234 32.6988 7.15234H31.2973C31.1076 7.15234 30.9581 7.0005 30.9581 6.81115V0.340204C30.9581 0.151639 31.1076 0 31.2973 0Z" fill="#B9C1C6"/>
<path fill-rule="evenodd" clip-rule="evenodd" d="M59.3589 15.3907L60.0632 16.6079C60.1565 16.7692 60.1011 16.9754 59.9397 17.0695L54.331 20.3087C54.1704 20.4011 53.9612 20.3455 53.8687 20.1842L53.1667 18.9644C53.0742 18.8045 53.1292 18.5981 53.289 18.506L58.8969 15.267C59.0597 15.1731 59.2668 15.2285 59.3589 15.3907Z" fill="#B9C1C6"/>
<path fill-rule="evenodd" clip-rule="evenodd" d="M64 31.2964V32.7012C64 32.8896 63.8478 33.0403 63.6608 33.0403H57.1855C57.0003 33.0403 56.8483 32.8896 56.8483 32.7012V31.2964C56.8483 31.1098 57.0001 30.9582 57.1855 30.9582H63.6608C63.8478 30.9582 64 31.1098 64 31.2964Z" fill="#B9C1C6"/>
<path fill-rule="evenodd" clip-rule="evenodd" d="M60.0632 47.3901L59.362 48.6085C59.267 48.77 59.0609 48.8242 58.9005 48.7323L53.2918 45.4954C53.1299 45.4011 53.0744 45.1959 53.1675 45.0328L53.8687 43.816C53.9641 43.6549 54.1702 43.5986 54.331 43.6926L59.9397 46.9295C60.1011 47.0216 60.1575 47.2288 60.0632 47.3901Z" fill="#B9C1C6"/>
<path fill-rule="evenodd" clip-rule="evenodd" d="M32.7023 64H31.2973C31.1109 64 30.9601 63.8495 30.9601 63.6633V57.1869C30.9601 57.0007 31.1109 56.8498 31.2973 56.8498H32.7023C32.891 56.8498 33.0415 57.0007 33.0415 57.1869V63.6633C33.0415 63.8495 32.891 64 32.7023 64Z" fill="#B9C1C6"/>
<path fill-rule="evenodd" clip-rule="evenodd" d="M16.6097 60.0641L15.3921 59.3644C15.2299 59.2701 15.1755 59.0631 15.2674 58.9019L18.5046 53.2928C18.5996 53.1333 18.8061 53.0748 18.9661 53.1687L20.1857 53.8726C20.3469 53.9667 20.4033 54.172 20.3071 54.3352L17.0703 59.9421C16.9782 60.1014 16.7708 60.1601 16.6097 60.0641Z" fill="#B9C1C6"/>
<path fill-rule="evenodd" clip-rule="evenodd" d="M4.63954 48.6107L3.93519 47.3919C3.84189 47.2308 3.89748 47.0255 4.05991 46.9293L9.6668 43.6924C9.82806 43.6001 10.0372 43.6547 10.1296 43.8158L10.8329 45.0346C10.9252 45.1957 10.8695 45.4029 10.7094 45.4954L5.10229 48.7322C4.93927 48.8283 4.73166 48.7719 4.63954 48.6107Z" fill="#B9C1C6"/>
<path fill-rule="evenodd" clip-rule="evenodd" d="M0 32.7056V31.2994C0 31.111 0.150847 30.9601 0.33921 30.9601H6.81288C6.99928 30.9601 7.14994 31.111 7.14994 31.2994V32.7056C7.14994 32.891 6.99928 33.0424 6.81288 33.0424H0.33921C0.150651 33.0424 0 32.891 0 32.7056Z" fill="#B9C1C6"/>
<path fill-rule="evenodd" clip-rule="evenodd" d="M3.93518 16.6103L4.63658 15.3917C4.73165 15.2316 4.93789 15.1748 5.09816 15.2671L10.7076 18.5062C10.8685 18.6002 10.9252 18.8057 10.8312 18.9679L10.1296 20.1856C10.0353 20.3478 9.82806 20.4022 9.6668 20.3089L4.05991 17.0697C3.89747 16.9778 3.8409 16.7716 3.93518 16.6103Z" fill="#B9C1C6"/>
<path fill-rule="evenodd" clip-rule="evenodd" d="M15.389 4.63892L16.6085 3.93533C16.7696 3.84203 16.976 3.8986 17.0703 4.05868L20.3071 9.66714C20.3994 9.8284 20.3448 10.0368 20.1825 10.1297L18.9651 10.8335C18.8037 10.9254 18.5965 10.871 18.5043 10.7099L15.2672 5.10051C15.1733 4.93925 15.2279 4.73183 15.389 4.63892Z" fill="#B9C1C6"/>
<path fill-rule="evenodd" clip-rule="evenodd" d="M32.0009 8.95963C44.7235 8.95963 55.0395 19.2767 55.0395 32.0008C55.0395 44.7245 44.7235 55.041 32.0009 55.041C19.2749 55.041 8.95894 44.7247 8.95894 32.0008C8.95914 19.2767 19.2749 8.95963 32.0009 8.95963Z" fill="#A3A3A3"/>
<path fill-rule="evenodd" clip-rule="evenodd" d="M31.4896 11.806C38.9312 11.806 44.9634 15.0962 44.9634 19.1573C44.9634 23.215 38.9312 26.5057 31.4896 26.5057C24.0486 26.5057 18.0155 23.2152 18.0155 19.1573C18.0155 15.0964 24.0486 11.806 31.4896 11.806Z" fill="#8E8E8E"/>
<path fill-rule="evenodd" clip-rule="evenodd" d="M30.1667 12.6602C33.659 12.6602 36.4888 14.2055 36.4888 16.11C36.4888 18.0155 33.6592 19.5596 30.1667 19.5596C26.6733 19.5596 23.8425 18.0155 23.8425 16.11C23.8425 14.2055 26.6733 12.6602 30.1667 12.6602Z" fill="#7B7B7B"/>
</svg>
