<svg width="50" height="50" viewBox="0 0 50 50" fill="none" xmlns="http://www.w3.org/2000/svg">
<path d="M19.7512 10.1654C18.3787 9.51027 16.8421 9.14352 15.2199 9.14352C9.40302 9.14352 4.6875 13.859 4.6875 19.6759C4.6875 25.4928 9.40302 30.2083 15.2199 30.2083C18.0937 30.2083 20.6987 29.0574 22.599 27.1913" stroke="#979797" stroke-width="2"/>
<path d="M20.265 24.2868C22.7027 27.8614 26.8077 30.2083 31.4608 30.2083C38.9396 30.2083 45.0024 24.1455 45.0024 16.6667C45.0024 9.18781 38.9396 3.125 31.4608 3.125C24.9754 3.125 19.5549 7.68403 18.2292 13.772" stroke="#979797" stroke-width="2" stroke-linecap="round"/>
<path d="M32.8125 34.375V37.5" stroke="#979797" stroke-width="2" stroke-linecap="round"/>
<path d="M32.8125 42.1875V45.3125" stroke="#979797" stroke-width="2" stroke-linecap="round"/>
<path d="M25 34.375V37.5" stroke="#979797" stroke-width="2" stroke-linecap="round"/>
<path d="M25 42.1875V45.3125" stroke="#979797" stroke-width="2" stroke-linecap="round"/>
<path d="M17.1875 34.375V37.5" stroke="#979797" stroke-width="2" stroke-linecap="round"/>
<path d="M17.1875 42.1875V45.3125" stroke="#979797" stroke-width="2" stroke-linecap="round"/>
</svg>
