<svg width="50" height="66" viewBox="0 0 50 66" fill="none" xmlns="http://www.w3.org/2000/svg">
<path d="M49 40.619C49 47.0853 46.4714 53.2867 41.9706 57.859C37.4697 62.4313 31.3652 65 25 65C18.6348 65 12.5303 62.4313 8.02944 57.859C3.52856 53.2867 1 47.0853 1 40.619C1 27.1486 25 1 25 1C25 1 49 27.1486 49 40.619Z" stroke="#B9C1C6" stroke-width="2" stroke-linecap="round" stroke-linejoin="round"/>
<path d="M16.18 24.6496C18.43 21.2362 21.01 17.7315 23.62 14.4705" stroke="#B9C1C6" stroke-linecap="round" stroke-linejoin="round"/>
<path d="M9.42999 39.6438C9.84698 36.3848 10.9744 33.2613 12.73 30.5009" stroke="#B9C1C6" stroke-linecap="round" stroke-linejoin="round"/>
<path d="M49 41C49 54.8914 38.26 63 25 63C11.74 63 1 54.8914 1 41" stroke="#B9C1C6" stroke-width="2" stroke-linecap="round" stroke-linejoin="round"/>
</svg>
