<svg width="58" height="64" viewBox="0 0 58 64" fill="none" xmlns="http://www.w3.org/2000/svg">
<path d="M38.6353 24.7897C39.1096 23.0865 39.3571 21.3512 39.3571 19.6129C39.3571 8.79793 30.5297 0 19.6786 0C8.82739 0 0 8.79793 0 19.6129C0 30.3205 8.65754 39.039 19.3616 39.2093C18.9059 40.8619 18.6429 42.593 18.6429 44.3871C18.6429 55.2021 27.4702 64 38.3214 64C49.1726 64 58 55.2021 58 44.3871C58 33.6785 49.3404 24.96 38.6353 24.7897ZM19.6786 37.1613C9.96979 37.1613 2.07143 29.2893 2.07143 19.6129C2.07143 9.93652 9.96979 2.06452 19.6786 2.06452C29.3874 2.06452 37.2857 9.93652 37.2857 19.6129C37.2857 21.3791 36.9926 23.1422 36.4437 24.8692C35.6607 24.9435 34.8932 25.0674 34.1392 25.2305C34.8414 23.4405 35.2143 21.535 35.2143 19.6129C35.2143 11.0751 28.245 4.12903 19.6786 4.12903C11.1122 4.12903 4.14286 11.0751 4.14286 19.6129C4.14286 23.3301 5.49654 26.9306 7.95325 29.7507L9.51718 28.3974C7.61664 26.2152 6.48357 23.4942 6.26089 20.6452H10.3571V18.5806H6.26711C6.32304 17.857 6.438 17.151 6.60475 16.4645L10.4939 17.7239L11.1329 15.7605L7.2355 14.4991C7.51204 13.8343 7.84864 13.2026 8.22357 12.5956L11.5275 14.9874L12.7455 13.3182L9.43743 10.9234C9.9035 10.3783 10.412 9.87252 10.9579 9.408L13.3607 12.705L15.0355 11.4911L12.6357 8.19819C13.2437 7.82348 13.8786 7.488 14.5456 7.21342L15.8112 11.0978L17.7811 10.4609L16.5176 6.58477C17.2074 6.41858 17.9147 6.304 18.6408 6.24826V10.3226H20.7122V6.24619C21.4382 6.30194 22.1467 6.41652 22.8354 6.58271L21.5719 10.4588L23.5418 11.0957L24.8074 7.21135C25.4744 7.48697 26.1083 7.82245 26.7173 8.19613L24.3175 11.489L25.9923 12.703L28.3951 9.40594C28.942 9.87045 29.4495 10.3773 29.9156 10.9213L26.6075 13.3161L27.8255 14.9853L31.1294 12.5935C31.5054 13.1995 31.842 13.8323 32.1175 14.497L28.2201 15.7585L28.8591 17.7218L32.7482 16.4625C32.915 17.1499 33.03 17.855 33.0859 18.5786H29V20.6431H33.0983C32.9513 22.5177 32.4013 24.351 31.4888 26.016C27.9021 27.3455 24.8136 29.6826 22.562 32.6895C21.5853 32.9074 20.6149 33.0323 19.6786 33.0323C16.4482 33.0323 13.3172 31.8627 10.8636 29.7414L9.50579 31.3001C12.3364 33.7476 15.949 35.0968 19.6786 35.0968C20.127 35.0968 20.5859 35.0534 21.0426 35.0111C20.6666 35.6965 20.3435 36.4129 20.0504 37.1448C19.9271 37.151 19.8039 37.1613 19.6786 37.1613ZM38.3214 61.9355C28.6126 61.9355 20.7143 54.0635 20.7143 44.3871C20.7143 34.7107 28.6126 26.8387 38.3214 26.8387C48.0302 26.8387 55.9286 34.7107 55.9286 44.3871C55.9286 54.0635 48.0302 61.9355 38.3214 61.9355Z" fill="#A5A9AA"/>
<path d="M38.3214 28.9032C29.755 28.9032 22.7857 35.8493 22.7857 44.3871V45.4194H31.0714V44.3871C31.0714 40.4036 34.3246 37.1613 38.3214 37.1613C40.1847 37.1613 41.8801 37.8715 43.1655 39.0266L38.2645 53.6826C36.5783 53.7146 35.2143 55.0865 35.2143 56.7742C35.2143 58.4816 36.6083 59.871 38.3214 59.871C40.0345 59.871 41.4286 58.4816 41.4286 56.7742C41.4286 55.7853 40.9521 54.912 40.2251 54.3453L44.7014 40.96C45.2555 41.9809 45.5714 43.1474 45.5714 44.3871V45.4194H53.8571V44.3871C53.8571 35.8493 46.8878 28.9032 38.3214 28.9032ZM38.3214 57.8065C37.7497 57.8065 37.2857 57.344 37.2857 56.7742C37.2857 56.2044 37.7497 55.7419 38.3214 55.7419C38.8931 55.7419 39.3571 56.2044 39.3571 56.7742C39.3571 57.344 38.8931 57.8065 38.3214 57.8065ZM47.5848 43.3548C47.3808 41.5257 46.6361 39.8596 45.5217 38.5063L46.5533 35.423L44.5896 34.7695L43.8677 36.927C42.3172 35.7791 40.398 35.0968 38.3214 35.0968C33.5312 35.0968 29.5748 38.7159 29.058 43.3548H24.8965C25.4278 36.4356 31.2454 30.9677 38.3214 30.9677C45.3974 30.9677 51.215 36.4356 51.7463 43.3548H47.5848Z" fill="#B9C1C6"/>
<path d="M19.6786 30.9677C21.3917 30.9677 22.7857 29.5783 22.7857 27.871C22.7857 26.527 21.9168 25.3915 20.7143 24.9641V14.4516H18.6429V24.9641C17.4404 25.3915 16.5714 26.527 16.5714 27.871C16.5714 29.5783 17.9655 30.9677 19.6786 30.9677ZM19.6786 26.8387C20.2503 26.8387 20.7143 27.3011 20.7143 27.871C20.7143 28.4408 20.2503 28.9032 19.6786 28.9032C19.1069 28.9032 18.6429 28.4408 18.6429 27.871C18.6429 27.3011 19.1069 26.8387 19.6786 26.8387Z" fill="#B9C1C6"/>
</svg>
