<svg width="50" height="50" viewBox="0 0 50 50" fill="none" xmlns="http://www.w3.org/2000/svg">
<path d="M19.7512 10.1654C18.3787 9.51027 16.8421 9.14352 15.2199 9.14352C9.40302 9.14352 4.6875 13.859 4.6875 19.6759C4.6875 25.4928 9.40302 30.2083 15.2199 30.2083C18.0937 30.2083 20.6987 29.0574 22.599 27.1913" stroke="#979797" stroke-width="2"/>
<path d="M20.265 24.2868C22.7027 27.8614 26.8077 30.2083 31.4608 30.2083C38.9396 30.2083 45.0024 24.1455 45.0024 16.6667C45.0024 9.18781 38.9396 3.125 31.4608 3.125C24.9754 3.125 19.5549 7.68403 18.2292 13.772" stroke="#979797" stroke-width="2" stroke-linecap="round"/>
<path d="M21.875 46.875C22.7379 46.875 23.4375 46.1754 23.4375 45.3125C23.4375 44.4496 22.7379 43.75 21.875 43.75C21.0121 43.75 20.3125 44.4496 20.3125 45.3125C20.3125 46.1754 21.0121 46.875 21.875 46.875Z" stroke="#979797"/>
<path d="M34.375 37.5C35.2379 37.5 35.9375 36.8004 35.9375 35.9375C35.9375 35.0746 35.2379 34.375 34.375 34.375C33.5121 34.375 32.8125 35.0746 32.8125 35.9375C32.8125 36.8004 33.5121 37.5 34.375 37.5Z" stroke="#979797"/>
<path d="M13.2812 36.7188C14.1442 36.7188 14.8438 36.0192 14.8438 35.1562C14.8438 34.2933 14.1442 33.5938 13.2812 33.5938C12.4183 33.5938 11.7188 34.2933 11.7188 35.1562C11.7188 36.0192 12.4183 36.7188 13.2812 36.7188Z" stroke="#979797"/>
<path d="M28.9062 42.9688C29.7692 42.9688 30.4688 42.2692 30.4688 41.4062C30.4688 40.5433 29.7692 39.8438 28.9062 39.8438C28.0433 39.8438 27.3438 40.5433 27.3438 41.4062C27.3438 42.2692 28.0433 42.9688 28.9062 42.9688Z" stroke="#979797"/>
<path fill-rule="evenodd" clip-rule="evenodd" d="M12.5 42.1875L10.9375 44.8938L12.5 42.1875H9.375H12.5L10.9375 39.4812L12.5 42.1875L14.0625 39.4812L12.5 42.1875H15.625H12.5L14.0625 44.8938L12.5 42.1875Z" fill="#D8D8D8"/>
<path d="M12.5 42.1875L10.9375 44.8938L12.5 42.1875ZM12.5 42.1875H9.375H12.5ZM12.5 42.1875L10.9375 39.4812L12.5 42.1875ZM12.5 42.1875L14.0625 39.4812L12.5 42.1875ZM12.5 42.1875H15.625H12.5ZM12.5 42.1875L14.0625 44.8938L12.5 42.1875Z" stroke="#979797" stroke-linecap="round" stroke-linejoin="round"/>
<path fill-rule="evenodd" clip-rule="evenodd" d="M23.4375 35.9375L21.875 38.6438L23.4375 35.9375H20.3125H23.4375L21.875 33.2312L23.4375 35.9375L25 33.2312L23.4375 35.9375H26.5625H23.4375L25 38.6438L23.4375 35.9375Z" fill="#D8D8D8"/>
<path d="M23.4375 35.9375L21.875 38.6438L23.4375 35.9375ZM23.4375 35.9375H20.3125H23.4375ZM23.4375 35.9375L21.875 33.2312L23.4375 35.9375ZM23.4375 35.9375L25 33.2312L23.4375 35.9375ZM23.4375 35.9375H26.5625H23.4375ZM23.4375 35.9375L25 38.6438L23.4375 35.9375Z" stroke="#979797" stroke-linecap="round" stroke-linejoin="round"/>
<path fill-rule="evenodd" clip-rule="evenodd" d="M34.375 43.75L32.8125 46.4563L34.375 43.75H31.25H34.375L32.8125 41.0437L34.375 43.75L35.9375 41.0437L34.375 43.75H37.5H34.375L35.9375 46.4563L34.375 43.75Z" fill="#D8D8D8"/>
<path d="M34.375 43.75L32.8125 46.4563L34.375 43.75ZM34.375 43.75H31.25H34.375ZM34.375 43.75L32.8125 41.0437L34.375 43.75ZM34.375 43.75L35.9375 41.0437L34.375 43.75ZM34.375 43.75H37.5H34.375ZM34.375 43.75L35.9375 46.4563L34.375 43.75Z" stroke="#979797" stroke-linecap="round" stroke-linejoin="round"/>
</svg>
