<svg width="200" height="200" viewBox="0 0 200 200" fill="none" xmlns="http://www.w3.org/2000/svg">
<path d="M87.7589 78.5811C85.4071 68.1818 76.1104 60.4167 65.0001 60.4167C52.1134 60.4167 41.6667 70.8633 41.6667 83.75C41.6667 87.3075 42.4629 90.6791 43.8867 93.6962" stroke="#AFAFAF" stroke-width="2" stroke-linecap="round"/>
<path d="M88.4007 87.7116C83.0796 85.1718 77.1225 83.75 70.8333 83.75C48.2817 83.75 30 102.032 30 124.583C30 147.135 48.2817 165.417 70.8333 165.417C81.9748 165.417 92.0741 160.954 99.4416 153.72" stroke="#AFAFAF" stroke-width="2"/>
<path d="M90.3926 142.459C99.8434 156.318 115.758 165.417 133.798 165.417C162.793 165.417 186.298 141.912 186.298 112.917C186.298 83.9217 162.793 60.4167 133.798 60.4167C108.655 60.4167 87.6396 78.0917 82.5 101.694" stroke="#AFAFAF" stroke-width="2" stroke-linecap="round"/>
<path d="M32.4774 57.2267L23.4107 49.8846M62.1492 42.9167V31.25V42.9167ZM91.821 57.2267L100.888 49.8846L91.821 57.2267ZM25.1799 89.2564L13.8123 91.8808L25.1799 89.2564Z" stroke="#AFAFAF" stroke-width="2" stroke-linecap="round"/>
</svg>
