<svg width="50" height="50" viewBox="0 0 50 50" fill="none" xmlns="http://www.w3.org/2000/svg">
<path d="M21.9397 19.6453C21.3518 17.0455 19.0276 15.1042 16.25 15.1042C13.0284 15.1042 10.4167 17.7158 10.4167 20.9375C10.4167 21.8269 10.6157 22.6698 10.9717 23.4241" stroke="#272727" stroke-width="2" stroke-linecap="round"/>
<path d="M22.1002 21.9279C20.7699 21.293 19.2806 20.9375 17.7083 20.9375C12.0704 20.9375 7.5 25.5079 7.5 31.1458C7.5 36.7837 12.0704 41.3542 17.7083 41.3542C20.4937 41.3542 23.0185 40.2386 24.8604 38.4299" stroke="#272727" stroke-width="2"/>
<path d="M22.5981 35.6148C24.9608 39.0795 28.9395 41.3542 33.4495 41.3542C40.6982 41.3542 46.5745 35.4779 46.5745 28.2292C46.5745 20.9804 40.6982 15.1042 33.4495 15.1042C27.1637 15.1042 21.9099 19.5229 20.625 25.4236" stroke="#272727" stroke-width="2" stroke-linecap="round"/>
<path d="M8.11935 14.3067L5.85267 12.4712M15.5373 10.7292V7.8125V10.7292ZM22.9552 14.3067L25.2219 12.4712L22.9552 14.3067ZM6.29498 22.3141L3.45306 22.9702L6.29498 22.3141Z" stroke="#272727" stroke-width="2" stroke-linecap="round"/>
</svg>
