<svg width="50" height="50" viewBox="0 0 50 50" fill="none" xmlns="http://www.w3.org/2000/svg">
<path d="M19.7512 10.1654C18.3787 9.51026 16.8421 9.14352 15.2199 9.14352C9.40302 9.14352 4.6875 13.859 4.6875 19.6759C4.6875 25.4928 9.40302 30.2083 15.2199 30.2083C18.0937 30.2083 20.6987 29.0574 22.599 27.1913" stroke="#979797" stroke-width="2"/>
<path d="M20.2649 24.2868C22.7026 27.8614 26.8076 30.2083 31.4608 30.2083C38.9396 30.2083 45.0024 24.1455 45.0024 16.6667C45.0024 9.18781 38.9396 3.125 31.4608 3.125C24.9754 3.125 19.5548 7.68403 18.2292 13.772" stroke="#979797" stroke-width="2" stroke-linecap="round"/>
<path fill-rule="evenodd" clip-rule="evenodd" d="M20.3125 31.25H26.5625L23.4375 37.5H28.125L18.75 50L20.3125 42.1875H15.625L20.3125 31.25Z" fill="#979797"/>
</svg>
