<svg width="30" height="30" viewBox="0 0 30 30" fill="none" xmlns="http://www.w3.org/2000/svg">
<path d="M20.7299 21.6H7.92832C6.72138 21.5989 5.56003 21.1389 4.67961 20.3133C3.79919 19.4878 3.26556 18.3584 3.18688 17.154C3.1082 15.9496 3.49035 14.7604 4.25587 13.8273C5.0214 12.8942 6.11304 12.2871 7.30957 12.1289C7.68519 10.7426 8.45047 9.49312 9.51466 8.52856C10.5789 7.56399 11.8973 6.92482 13.3137 6.68683C14.7302 6.44884 16.1851 6.62201 17.5061 7.1858C18.8271 7.7496 19.9587 8.68038 20.7668 9.86778C22.3131 9.88731 23.7891 10.5165 24.8739 11.6186C25.9587 12.7206 26.5645 14.2064 26.5596 15.7528C26.5548 17.2991 25.9396 18.7811 24.8479 19.8763C23.7562 20.9715 22.2762 21.5914 20.7299 21.6012V21.6ZM7.92832 13.8457C7.13313 13.8457 6.37052 14.1616 5.80824 14.7239C5.24596 15.2862 4.93008 16.0488 4.93008 16.844C4.93008 17.6391 5.24596 18.4018 5.80824 18.964C6.37052 19.5263 7.13313 19.8422 7.92832 19.8422H20.7299C21.8111 19.8293 22.8437 19.3907 23.6037 18.6215C24.3638 17.8524 24.79 16.8146 24.79 15.7333C24.79 14.652 24.3638 13.6142 23.6037 12.8451C22.8437 12.0759 21.8111 11.6373 20.7299 11.6244C20.6186 11.6244 20.5014 11.6297 20.3707 11.6414C20.2046 11.6557 20.0378 11.6225 19.8899 11.5457C19.7419 11.4688 19.6189 11.3514 19.5352 11.2072C18.9425 10.1849 18.0495 9.36997 16.9774 8.87312C15.9053 8.37627 14.7062 8.22165 13.5431 8.43028C12.38 8.63891 11.3094 9.20068 10.4769 10.0392C9.64431 10.8777 9.09018 11.9523 8.88984 13.1168C8.85428 13.325 8.74494 13.5134 8.58181 13.6476C8.41869 13.7818 8.21271 13.8527 8.00156 13.8475H7.96054L7.92832 13.8457Z" fill="black"/>
</svg>
