<svg width="64" height="68" viewBox="0 0 64 68" fill="none" xmlns="http://www.w3.org/2000/svg">
<path d="M31.6856 10.5304C26.6058 10.5284 21.6394 12.0331 17.4148 14.8541C13.1902 17.6751 9.89723 21.6856 7.95233 26.3784C6.00743 31.0712 5.49804 36.2355 6.48859 41.2178C7.47914 46.2002 9.92512 50.7769 13.5171 54.3689C17.1092 57.9609 21.6858 60.4069 26.6682 61.3974C31.6505 62.388 36.8148 61.8786 41.5076 59.9337C46.2004 57.9888 50.2109 54.6958 53.0319 50.4712C55.8529 46.2466 57.3576 41.2802 57.3556 36.2004C57.353 29.3931 54.6476 22.8653 49.8341 18.0519C45.0207 13.2384 38.4929 10.533 31.6856 10.5304V10.5304ZM31.6856 58.8804C27.1995 58.8823 22.8136 57.5539 19.0826 55.063C15.3516 52.5721 12.4431 49.0306 10.7249 44.8866C9.00679 40.7425 8.55623 36.182 9.43021 31.7819C10.3042 27.3817 12.4635 23.3396 15.6349 20.1667C18.8064 16.9939 22.8476 14.8328 27.2473 13.9569C31.6471 13.081 36.2078 13.5295 40.3526 15.2458C44.4974 16.9621 48.0401 19.8691 50.5327 23.599C53.0252 27.3289 54.3556 31.7143 54.3556 36.2004C54.3477 42.2104 51.9567 47.972 47.707 52.2217C43.4572 56.4714 37.6957 58.8624 31.6856 58.8704V58.8804Z" fill="#B9C1C6"/>
<path d="M41.1356 5.97036C40.3848 4.22128 39.1437 2.72694 37.5622 1.66771C35.9807 0.608482 34.1264 0.0296579 32.2232 0.00110946C30.3199 -0.027439 28.4491 0.495508 26.8366 1.50682C25.224 2.51814 23.9386 3.97459 23.1356 5.70036C15.8037 7.75398 9.45659 12.3796 5.25633 18.7304C1.05607 25.0812 -0.716364 32.7324 0.263492 40.2832C1.24335 47.834 4.90994 54.7794 10.5921 59.8478C16.2742 64.9162 23.5916 67.7686 31.2049 67.8828C38.8182 67.997 46.2179 65.3653 52.0495 60.4696C57.8811 55.5739 61.7544 48.7417 62.9602 41.2237C64.1661 33.7056 62.624 26.0048 58.6161 19.5308C54.6082 13.0569 48.4027 8.24296 41.1356 5.97036V5.97036ZM36.8656 4.97036C35.1539 4.68199 33.4214 4.53482 31.6856 4.53036C30.2638 4.53359 28.8438 4.63382 27.4356 4.83036C28.724 3.63681 30.4226 2.98542 32.1787 3.0115C33.9347 3.03757 35.6133 3.73909 36.8656 4.97036V4.97036ZM31.6856 64.8704C26.0124 64.8723 20.4661 63.1917 15.7481 60.0411C11.0302 56.8904 7.35265 52.4113 5.18069 47.1703C3.00873 41.9293 2.43992 36.1619 3.54623 30.5976C4.65253 25.0333 7.38425 19.9221 11.3958 15.9105C15.4074 11.899 20.5186 9.16726 26.0829 8.06095C31.6472 6.95465 37.4146 7.52345 42.6556 9.69541C47.8966 11.8674 52.3757 15.5449 55.5264 20.2628C58.677 24.9808 60.3576 30.5271 60.3556 36.2004C60.3451 43.8009 57.3211 51.087 51.9467 56.4614C46.5723 61.8358 39.2861 64.8598 31.6856 64.8704V64.8704Z" fill="#B9C1C6"/>
<path d="M45.2856 23.6303C45.4026 23.485 45.4595 23.3004 45.4446 23.1144C45.4297 22.9285 45.3442 22.7552 45.2056 22.6303C45.0795 22.4939 44.9065 22.4099 44.7213 22.395C44.536 22.3802 44.3519 22.4357 44.2056 22.5503L31.8156 31.4603H31.6856C30.4232 31.4603 29.2125 31.9618 28.3198 32.8545C27.4271 33.7472 26.9256 34.9579 26.9256 36.2203C26.9256 36.2203 26.9256 36.3203 26.9256 36.3703L18.1156 48.7203C18.0052 48.8683 17.9525 49.0514 17.9672 49.2354C17.9819 49.4194 18.0631 49.5918 18.1956 49.7203C18.3362 49.861 18.5268 49.9402 18.7256 49.9403C18.8799 49.9384 19.0298 49.8896 19.1556 49.8003L31.5356 40.9403H31.6856C32.9454 40.9403 34.1536 40.4399 35.0444 39.5491C35.9352 38.6583 36.4356 37.4501 36.4356 36.1903C36.4356 36.1403 36.4356 36.1003 36.4356 36.0503L45.2856 23.6303ZM31.6856 37.9503C31.3367 37.9523 30.9951 37.8505 30.7041 37.6579C30.4131 37.4653 30.186 37.1905 30.0516 36.8685C29.9171 36.5465 29.8814 36.1918 29.949 35.8495C30.0166 35.5071 30.1844 35.1926 30.4312 34.9459C30.6779 34.6991 30.9924 34.5313 31.3348 34.4637C31.6771 34.3961 32.0318 34.4318 32.3538 34.5663C32.6758 34.7007 32.9506 34.9278 33.1432 35.2188C33.3358 35.5098 33.4376 35.8514 33.4356 36.2003C33.4356 36.6645 33.2513 37.1096 32.9231 37.4378C32.5949 37.766 32.1498 37.9503 31.6856 37.9503V37.9503Z" fill="#A5A9AA"/>
<path d="M30.1856 21.6803C30.1856 22.0782 30.3437 22.4597 30.625 22.741C30.9063 23.0223 31.2878 23.1803 31.6856 23.1803C32.0835 23.1803 32.465 23.0223 32.7463 22.741C33.0276 22.4597 33.1856 22.0782 33.1856 21.6803V15.9803C33.1856 15.5825 33.0276 15.201 32.7463 14.9197C32.465 14.6384 32.0835 14.4803 31.6856 14.4803C31.2878 14.4803 30.9063 14.6384 30.625 14.9197C30.3437 15.201 30.1856 15.5825 30.1856 15.9803V21.6803Z" fill="#B9C1C6"/>
<path d="M31.6856 48.7504C31.2878 48.7504 30.9063 48.9084 30.625 49.1897C30.3437 49.471 30.1856 49.8525 30.1856 50.2504V55.9604C30.1856 56.3582 30.3437 56.7397 30.625 57.021C30.9063 57.3023 31.2878 57.4604 31.6856 57.4604C32.0835 57.4604 32.465 57.3023 32.7463 57.021C33.0276 56.7397 33.1856 56.3582 33.1856 55.9604V50.2504C33.1856 49.8525 33.0276 49.471 32.7463 49.1897C32.465 48.9084 32.0835 48.7504 31.6856 48.7504V48.7504Z" fill="#B9C1C6"/>
<path d="M18.8956 35.9704C18.8956 35.5725 18.7376 35.191 18.4563 34.9097C18.175 34.6284 17.7935 34.4704 17.3956 34.4704H11.6956C11.2978 34.4704 10.9163 34.6284 10.635 34.9097C10.3537 35.191 10.1956 35.5725 10.1956 35.9704C10.1956 36.3682 10.3537 36.7497 10.635 37.031C10.9163 37.3123 11.2978 37.4704 11.6956 37.4704H17.3956C17.7935 37.4704 18.175 37.3123 18.4563 37.031C18.7376 36.7497 18.8956 36.3682 18.8956 35.9704Z" fill="#B9C1C6"/>
<path d="M51.6656 34.4704H45.9656C45.5678 34.4704 45.1863 34.6284 44.905 34.9097C44.6237 35.191 44.4656 35.5725 44.4656 35.9704C44.4656 36.3682 44.6237 36.7497 44.905 37.031C45.1863 37.3123 45.5678 37.4704 45.9656 37.4704H51.6656C52.0635 37.4704 52.445 37.3123 52.7263 37.031C53.0076 36.7497 53.1656 36.3682 53.1656 35.9704C53.1656 35.5725 53.0076 35.191 52.7263 34.9097C52.445 34.6284 52.0635 34.4704 51.6656 34.4704Z" fill="#B9C1C6"/>
</svg>
