<svg width="68" height="58" viewBox="0 0 68 58" fill="none" xmlns="http://www.w3.org/2000/svg">
<path d="M2 39.0286H38.9695C40.9915 39.0286 42.9307 39.9226 44.3604 41.514C45.7902 43.1054 46.5935 45.2637 46.5935 47.5143C46.5935 49.7648 45.7902 51.9232 44.3604 53.5146C42.9307 55.106 40.9915 56 38.9695 56" stroke="#A5A9AA" stroke-width="3" stroke-miterlimit="10" stroke-linecap="round"/>
<path d="M46.3578 2C47.6445 2 48.8786 2.56893 49.7884 3.58162C50.6983 4.59432 51.2094 5.96783 51.2094 7.4C51.2094 8.83217 50.6983 10.2057 49.7884 11.2184C48.8786 12.2311 47.6445 12.8 46.3578 12.8H2" stroke="#A5A9AA" stroke-width="3" stroke-miterlimit="10" stroke-linecap="round"/>
<path d="M44.9716 26.6857H62.2989C63.2805 26.6857 64.2219 27.1197 64.916 27.8923C65.6101 28.6648 66 29.7126 66 30.8051C65.9963 31.895 65.6048 32.9388 64.9111 33.708C64.2174 34.4772 63.2781 34.9091 62.2989 34.9091" stroke="#B9C1C6" stroke-width="3" stroke-miterlimit="10" stroke-linecap="round"/>
<path d="M25.5651 26.6857H36.6545" stroke="#A5A9AA" stroke-width="3" stroke-miterlimit="10" stroke-linecap="round"/>
<path d="M2 26.6857H17.248" stroke="#B9C1C6" stroke-width="3" stroke-miterlimit="10" stroke-linecap="round"/>
</svg>
